<svg xmlns="http://www.w3.org/2000/svg" viewBox="-6.0 -6.5 524.0 524.0"><path fill="currentColor" fill-rule="evenodd" d="M256.0 508.6L255.0 508.8L253.3 506.0L242.9 480.0L242.6 477.0L244.3 467.0L243.4 465.0L241.0 463.0L232.0 462.4L212.0 458.2L172.0 444.2L152.5 435.0L134.0 424.2L109.0 406.1L89.0 410.4L87.0 410.7L85.5 410.0L85.8 406.0L90.1 391.0L90.0 389.0L76.8 370.0L69.3 357.0L62.3 343.0L54.8 325.0L50.8 313.0L46.6 296.0L43.6 278.0L43.4 270.0L42.0 265.0L39.0 262.7L32.0 263.5L27.0 262.2L9.0 254.7L1.8 251.0L2.0 250.0L5.0 248.3L28.0 238.9L40.0 238.4L43.0 236.0L47.8 209.0L51.9 195.0L57.8 179.0L70.8 152.0L82.8 132.0L90.9 120.0L85.5 100.0L86.0 97.5L90.0 97.6L108.0 102.1L110.0 102.0L130.0 87.8L145.0 78.8L169.0 66.8L215.0 51.8L242.0 47.0L244.3 44.0L242.6 34.0L242.8 31.0L255.0 1.2L256.0 1.4L257.1 3.0L268.1 31.0L268.3 33.0L266.6 43.0L267.0 45.0L269.0 47.0L275.0 48.4L287.0 49.6L296.0 51.8L339.0 65.8L350.0 70.7L369.0 80.8L385.0 90.8L400.0 102.0L403.0 102.1L421.0 97.6L424.7 98.0L425.1 100.0L419.9 118.0L419.9 120.0L437.2 147.0L446.3 164.0L452.2 177.0L461.2 202.0L464.4 215.0L468.0 236.0L471.0 238.4L483.0 238.9L507.4 249.0L509.0 250.0L509.2 251.0L506.4 253.0L484.0 262.2L479.0 263.5L472.0 262.7L470.0 263.6L468.0 266.0L466.4 285.0L463.4 300.0L455.2 327.0L443.7 353.0L430.2 376.0L421.0 389.0L420.9 392.0L425.5 410.0L424.0 410.7L421.0 410.4L402.0 406.1L377.0 424.2L358.0 435.1L339.4 444.0L296.0 459.2L269.0 464.0L267.0 466.0L266.6 468.0L268.3 477.0L268.1 479.0L256.0 508.6ZM223.9 249.0L242.0 246.3L244.1 245.0L244.2 243.0L242.0 240.5L233.0 234.4L230.0 230.5L219.5 220.0L211.0 214.4L197.0 200.5L188.8 195.0L181.6 189.0L148.0 154.5L130.5 140.0L111.1 121.0L112.0 120.1L115.0 122.0L140.0 141.6L152.0 153.6L155.4 158.0L183.5 186.0L221.0 215.6L245.0 239.5L248.0 240.9L250.0 240.3L251.4 239.0L253.4 233.0L254.0 228.1L255.0 226.9L256.1 228.0L258.0 239.0L260.0 241.0L263.0 241.0L272.5 234.0L298.0 208.5L303.4 204.0L316.6 182.0L320.4 178.0L334.6 159.0L354.4 138.0L355.4 136.0L355.0 135.0L353.0 134.5L318.0 148.7L316.0 149.1L315.0 148.5L313.9 146.0L309.2 123.0L305.2 108.0L297.3 87.0L295.0 82.8L292.0 79.6L282.0 71.8L280.0 70.7L277.8 71.0L276.6 73.0L276.5 75.0L277.0 103.0L279.0 104.4L281.0 103.0L281.9 98.0L283.0 95.8L284.7 96.0L285.3 98.0L278.4 139.0L272.2 169.0L258.1 218.0L257.0 220.2L255.0 221.3L253.6 218.0L255.5 202.0L255.5 158.0L257.3 147.0L256.5 143.0L256.5 123.0L255.5 118.0L255.5 77.0L254.5 71.0L254.5 60.0L253.3 57.0L251.0 55.8L233.0 63.2L211.0 70.2L176.0 77.0L144.0 97.3L131.0 103.7L122.0 107.2L107.0 111.0L104.7 114.0L101.0 115.6L99.6 118.0L99.4 122.0L96.2 137.0L92.3 147.0L85.7 160.0L79.2 171.0L65.0 191.0L63.4 206.0L60.2 221.0L52.1 245.0L53.0 247.3L56.0 248.5L62.0 247.5L81.0 247.5L86.0 246.5L100.0 246.5L105.0 245.5L122.0 245.5L127.0 246.5L139.0 246.5L145.0 245.5L162.0 245.5L167.0 244.5L179.0 244.5L195.0 247.4L208.0 247.6L217.0 249.8L223.9 249.0ZM269.2 128.0L270.5 125.0L270.5 90.0L272.5 76.0L272.5 69.0L270.4 63.0L268.0 61.0L265.0 60.5L262.0 61.7L260.6 64.0L260.5 77.0L265.4 110.0L265.7 126.0L267.0 128.1L269.2 128.0ZM287.0 141.2L285.0 141.4L283.7 139.0L287.5 126.0L289.0 124.1L290.0 123.9L291.8 125.0L291.8 127.0L289.2 137.0L287.0 141.2ZM338.3 175.0L357.0 159.4L367.5 149.0L382.4 136.0L385.2 133.0L385.0 131.1L383.0 130.8L357.5 150.0L337.6 170.0L335.6 174.0L337.0 175.4L338.3 175.0ZM225.0 187.4L221.0 184.5L213.2 175.0L214.9 171.0L214.8 169.0L203.5 137.0L204.0 135.4L205.4 136.0L207.0 138.9L219.3 167.0L220.7 169.0L223.9 171.0L224.3 172.0L225.5 180.0L225.0 187.4ZM282.0 193.2L281.2 192.0L281.5 187.0L283.3 178.0L288.2 174.0L303.0 144.8L305.0 142.9L305.7 144.0L304.1 149.0L292.9 176.0L293.2 182.0L282.0 193.2ZM312.4 226.0L328.0 219.1L342.0 209.8L351.0 205.2L353.2 203.0L353.0 201.0L352.0 200.5L350.0 200.8L317.0 217.8L308.8 224.0L309.0 226.0L310.0 226.5L312.4 226.0ZM192.0 225.3L190.0 225.4L187.0 224.1L186.0 222.6L186.3 221.0L189.0 220.6L192.2 222.0L193.3 224.0L192.0 225.3ZM332.6 432.0L358.0 414.8L371.0 407.7L386.0 401.8L400.0 397.8L405.0 397.2L409.2 395.0L412.0 390.0L412.5 387.0L412.5 360.0L410.4 342.0L408.7 337.0L405.4 331.0L402.0 327.8L399.0 327.1L397.0 329.0L396.9 331.0L400.2 338.0L401.3 344.0L399.0 346.3L394.0 345.7L387.0 342.2L383.6 339.0L377.8 327.0L376.9 323.0L378.0 321.7L400.2 313.0L401.5 311.0L399.2 308.0L350.0 279.3L348.0 279.2L346.9 280.0L346.9 282.0L347.8 283.0L367.0 295.2L389.0 308.0L389.4 310.0L386.7 310.0L353.0 291.8L337.0 287.5L326.0 282.7L310.9 275.0L306.5 269.0L306.1 266.0L307.1 265.0L309.0 264.7L327.0 268.4L334.0 268.5L338.0 267.6L359.0 266.5L371.0 264.6L380.0 264.5L398.0 262.4L422.0 256.6L436.0 254.3L438.0 253.2L438.4 252.0L437.0 250.0L423.0 249.5L416.0 250.5L320.0 250.5L314.0 251.3L302.0 249.5L291.0 249.5L286.0 250.3L280.0 249.2L266.0 252.0L264.7 253.0L263.8 255.0L264.9 258.0L264.0 258.5L260.0 258.0L257.0 261.0L256.4 271.0L254.5 278.0L255.5 291.0L257.0 294.1L261.0 294.2L262.1 295.0L263.1 297.0L264.4 304.0L265.5 317.0L265.5 332.0L264.5 338.0L264.5 356.0L265.5 361.0L265.5 375.0L266.5 380.0L267.5 407.0L269.8 419.0L272.9 430.0L274.0 431.3L276.0 431.8L278.4 430.0L279.5 427.0L277.5 395.0L273.7 367.0L273.8 365.0L275.0 363.8L276.2 365.0L278.3 376.0L283.6 418.0L284.8 420.0L286.0 420.4L288.0 419.2L289.0 417.0L288.4 404.0L282.4 363.0L276.9 350.0L275.6 344.0L275.6 338.0L277.0 334.5L279.0 333.8L281.0 335.4L285.7 346.0L287.8 349.0L290.0 349.1L291.2 347.0L290.1 342.0L278.9 315.0L278.9 313.0L280.0 312.0L282.0 313.1L310.0 369.6L316.1 385.0L328.5 430.0L330.0 432.1L332.6 432.0ZM101.3 391.0L143.0 349.5L147.0 346.4L150.5 342.0L178.5 314.0L199.0 298.4L222.0 277.6L231.0 270.5L243.0 258.2L243.9 256.0L243.0 253.7L241.0 252.6L234.0 252.4L228.0 251.1L219.0 252.3L182.0 252.5L176.0 253.5L76.0 253.5L70.0 252.5L60.0 252.5L56.0 251.6L53.0 252.7L52.0 255.0L58.4 276.0L61.4 293.0L61.6 305.0L63.0 307.3L65.0 308.4L80.0 309.6L109.0 314.6L122.0 317.9L124.2 320.0L124.1 322.0L122.4 325.0L111.5 335.0L106.8 341.0L102.8 349.0L100.8 355.0L98.6 366.0L97.5 384.0L98.4 390.0L100.0 391.4L101.3 391.0ZM333.0 365.3L328.8 364.0L322.5 359.0L317.8 354.0L305.8 330.0L300.0 312.0L283.2 285.0L276.6 278.0L273.8 274.0L270.3 267.0L269.2 263.0L270.0 262.8L275.0 266.6L283.0 274.4L303.5 291.0L310.5 299.0L334.0 322.5L342.4 330.0L342.9 333.0L341.9 334.0L336.0 335.6L333.0 338.9L331.9 342.0L332.6 351.0L335.3 362.0L335.0 364.0L333.0 365.3ZM152.0 303.0L150.0 302.4L150.2 301.0L176.0 286.2L183.0 281.3L185.1 278.0L200.0 274.0L201.0 274.0L201.7 275.0L197.0 280.5L191.0 285.4L185.0 286.8L152.0 303.0ZM201.2 359.0L219.7 322.0L231.2 295.0L231.5 293.0L231.0 292.0L229.0 291.8L227.6 293.0L219.3 305.0L200.8 350.0L198.5 358.0L200.0 359.4L201.2 359.0ZM426.0 359.0L438.2 334.0L439.5 329.0L438.0 327.6L435.9 329.0L425.8 348.0L423.6 358.0L424.1 359.0L426.0 359.0ZM398.0 383.0L362.0 352.5L352.7 343.0L352.3 341.0L353.0 340.2L355.0 340.0L360.0 343.5L394.4 377.0L399.0 382.0L398.0 383.0ZM335.0 410.2L331.6 408.0L328.7 403.0L327.7 400.0L328.0 398.5L329.0 397.7L332.4 400.0L336.7 407.0L336.8 409.0L335.0 410.2ZM238.2 444.0L240.2 439.0L242.5 427.0L242.5 407.0L242.0 405.0L240.0 403.6L238.8 404.0L237.7 406.0L236.5 415.0L236.5 431.0L234.5 438.0L235.0 443.0L236.0 444.1L238.2 444.0ZM206.0 442.0L206.1 440.0L205.0 438.9L191.0 431.8L185.0 430.5L182.0 431.0L180.9 432.0L180.9 434.0L184.0 436.2L203.0 442.5L206.0 442.0Z"/></svg>
